<svg width="214" height="83" viewBox="0 0 214 83" fill="none" xmlns="http://www.w3.org/2000/svg">
<g opacity="0.9" filter="url(#filter0_dd_1_529)">
<path d="M23.6169 6.95015H15.9398L29.229 29.7632L25.1013 30.9534L9.44714 3.21423H26.4456L31.4891 11.9002L27.1928 13.2078L23.6169 6.95015Z" fill="white"/>
<path d="M50.0753 48.4188L43.444 56.1709L33.2636 37.6087L29.4471 38.7295L33.2636 45.9905L42.6034 62.8955L52.13 51.3142L50.0753 48.4188Z" fill="white"/>
<path fill-rule="evenodd" clip-rule="evenodd" d="M27.1929 13.2078L23.6171 6.95014H15.94L29.2292 29.7632L25.1015 30.9534L9.44734 3.21422H26.4458L31.4893 11.9002L27.1929 13.2078ZM17.24 7.69733L30.3574 30.2155L24.7411 31.835L8.16772 2.46704H26.8759L32.6089 12.3405L26.84 14.0962L23.1835 7.69733H17.24ZM33.2638 37.6087L43.4442 56.1709L50.0754 48.4188L52.1302 51.3142L42.6036 62.8955L33.2638 45.9905L29.4473 38.7295L33.2638 37.6087ZM43.5793 54.8634L50.1304 47.2052L53.0702 51.3476L42.4817 64.2199L32.606 46.345L28.3614 38.2696L33.6299 36.7225L43.5793 54.8634Z" fill="white"/>
<path d="M74.4408 6.67003H37.4517C37.185 6.67003 37.0707 6.33128 37.2829 6.16968L41.5769 2.90004C41.707 2.80096 41.866 2.74731 42.0295 2.74731H83.5116C83.5116 2.74731 64.8319 29.4591 64.4583 29.9261C64.1177 30.3519 64.9418 23.7897 65.0899 22.6284C65.1047 22.5121 65.1466 22.4037 65.2126 22.3068L75.0585 7.83756C75.3961 7.34152 75.0408 6.67003 74.4408 6.67003Z" fill="white"/>
<path fill-rule="evenodd" clip-rule="evenodd" d="M84.1238 3.17538L83.5115 2.74718H42.0294C41.8659 2.74718 41.7068 2.80083 41.5767 2.8999L37.2828 6.16955L36.8301 5.57508L41.1241 2.30544C41.3843 2.1073 41.7023 2 42.0294 2H84.9458L84.1238 3.17538ZM37.4516 6.6699C37.1848 6.6699 37.0706 6.33115 37.2828 6.16955L36.8301 5.57508C36.0488 6.17003 36.4695 7.41708 37.4516 7.41708L74.4407 7.41708L64.5947 21.8863C64.4644 22.0778 64.3787 22.2972 64.3485 22.5338C64.2744 23.1154 64.0304 25.0531 63.8476 26.7942C63.7564 27.6621 63.679 28.4943 63.6463 29.0874C63.6304 29.3754 63.6227 29.6423 63.636 29.834C63.6395 29.8845 63.6453 29.9432 63.656 30.003C63.6645 30.0507 63.6851 30.1543 63.7409 30.2645C63.7795 30.3407 63.9789 30.6949 64.4327 30.693C64.8035 30.6914 65.0067 30.4366 65.0402 30.3946L65.0416 30.3927C65.2483 30.1344 70.0373 23.3021 74.737 16.59C77.0954 13.2217 79.4421 9.86809 81.1992 7.35652C82.0777 6.10073 82.8089 5.05545 83.3204 4.32412L84.123 3.1766L84.1236 3.17569C84.1237 3.17548 84.1238 3.17538 83.5115 2.74718C83.5115 2.74718 83.325 3.01385 82.9889 3.49437C80.3185 7.31258 68.2028 24.6331 65.1517 28.9535C65.048 29.1003 64.9548 29.2321 64.8728 29.3478C64.6321 29.6875 64.4877 29.889 64.4582 29.926C64.4264 29.9657 64.4048 29.9446 64.3918 29.8729C64.3714 29.7603 64.3722 29.523 64.3886 29.1997C64.3962 29.0482 64.4073 28.8779 64.4211 28.6926C64.5611 26.8217 64.9872 23.4319 65.0897 22.6283C65.1045 22.5119 65.1464 22.4036 65.2124 22.3066L75.0584 7.83743C75.3959 7.34139 75.0406 6.6699 74.4407 6.6699H37.4516Z" fill="white"/>
<g filter="url(#filter1_d_1_529)">
<path fill-rule="evenodd" clip-rule="evenodd" d="M60.319 10.7226C60.318 11.8535 59.8311 14.7604 59.3601 16.4484C57.844 21.8814 54.7327 25.7965 50.2696 27.8871C47.9227 28.9865 45.9341 29.4083 42.0994 29.6197C37.9762 29.8472 35.4756 30.2137 33.4844 30.8828C28.7768 32.4649 26.4465 35.0884 26.6443 38.5843C26.6602 38.8664 27.042 38.9409 27.1628 38.6855L27.4659 38.0449C28.0195 36.8749 28.5268 36.1502 29.3259 35.3871C31.6601 33.1583 34.0766 32.5236 41.32 32.2374C49.3449 31.92 52.5178 30.8834 56.2016 27.3752C60.0096 23.7488 61.5898 18.7124 60.9079 12.3753C60.6626 10.0955 60.3206 9.1355 60.319 10.7226ZM43.7677 10.3326C39.7189 10.8979 36.1193 12.9536 33.5827 16.1489C31.4069 18.8897 30.5218 21.2746 30.3599 24.8328C30.2558 27.1184 30.5345 29.7106 30.9092 29.9423C31.0051 30.0016 31.8625 29.7826 32.8147 29.4552C33.7668 29.1281 34.7275 28.8603 34.9497 28.8603C35.536 28.8603 35.5783 28.6796 35.3357 27.2134C34.7967 23.9571 36.0207 20.183 38.3807 17.8242C39.684 16.5217 41.523 15.4072 43.158 14.9293C44.3633 14.577 47.2886 14.5228 48.6128 14.8285C51.0327 15.3868 54.089 17.7405 55.4017 20.057L55.55 20.3187C55.7536 20.678 56.2651 20.6947 56.4918 20.3496C56.9556 19.6438 57.9663 17.4063 58.2618 16.4318C58.5169 15.5906 55.61 13.0073 53.0122 11.7664C50.3652 10.5021 46.6645 9.92803 43.7677 10.3326ZM60.8251 21.2524C59.4105 25.1753 58.8004 26.3672 57.2654 28.2056C56.8047 28.7572 56.1003 29.8541 55.7 30.6428C54.2609 33.4784 51.31 35.8234 48.3501 36.4831L47.6167 36.6466C47.3562 36.7047 47.0845 36.6193 46.9039 36.4228L46.0689 35.514L45.1793 34.5457C45.0291 34.3822 44.8139 34.2939 44.5921 34.3049L40.5978 34.5027C36.3058 34.7152 33.895 34.959 33.6507 35.2054C33.5817 35.275 34.1536 35.9324 34.9218 36.6661C37.4152 39.0477 40.4025 40.4665 43.9788 40.9673H46.8347C47.0627 40.9673 47.2783 41.0714 47.42 41.2501L49.3284 43.6555C50.345 44.7676 53.4389 49.1644 53.5607 49.166C53.8414 49.1699 58.2599 46.8423 58.2599 46.6895C58.2599 46.6271 54.4672 41.4807 53.8115 40.7422C53.1556 40.0036 51.9008 40.0354 51.9404 40.0063C51.3509 40.2449 51.9797 39.9773 51.9404 40.0063C53.9491 39.1939 55.7117 37.9889 57.4373 36.2483C58.8972 34.7758 59.2694 34.2558 60.1013 32.5274C61.2706 30.0982 61.6839 28.3377 61.6839 25.7851C61.6839 23.1676 61.1501 20.3508 60.8251 21.2524Z" fill="white"/>
</g>
</g>
<g filter="url(#filter2_dd_1_529)">
<path d="M98.0136 25.3038L89.3251 3.73557H95.9638L100.828 17.2884L105.693 3.73557H112.209L103.52 25.3038H98.0136ZM115.016 25.1509V3.73557H120.982V25.1509H115.016ZM133.928 25.518C130.134 25.518 126.524 24.3249 123.893 21.9692L127.197 18.0226C129.308 19.7053 131.664 20.5925 134.142 20.5925C135.733 20.5925 136.589 20.0418 136.589 19.124V19.0628C136.589 18.1756 135.885 17.6861 132.979 17.0131C128.421 15.9729 124.902 14.688 124.902 10.2825V10.2213C124.902 6.24422 128.054 3.36845 133.193 3.36845C136.834 3.36845 139.679 4.34743 142.004 6.21363L139.037 10.4049C137.079 9.02821 134.937 8.29397 133.04 8.29397C131.602 8.29397 130.899 8.90584 130.899 9.67067V9.73186C130.899 10.7108 131.633 11.1391 134.601 11.8122C139.526 12.883 142.585 14.4738 142.585 18.4815V18.5427C142.585 22.9176 139.128 25.518 133.928 25.518ZM146.206 25.1509V3.73557H152.172V25.1509H146.206ZM167.473 25.5792C160.865 25.5792 155.97 20.6537 155.97 14.5044V14.4432C155.97 8.29397 160.926 3.30726 167.534 3.30726C174.142 3.30726 179.037 8.23278 179.037 14.382V14.4432C179.037 20.5925 174.081 25.5792 167.473 25.5792ZM167.534 20.2254C170.807 20.2254 172.98 17.5943 172.98 14.5044V14.4432C172.98 11.3533 170.746 8.66109 167.473 8.66109C164.23 8.66109 162.058 11.2921 162.058 14.382V14.4432C162.058 17.5331 164.291 20.2254 167.534 20.2254ZM182.741 25.1509V3.73557H188.278L197.089 15.0551V3.73557H202.963V25.1509H197.762L188.614 13.4031V25.1509H182.741ZM110.679 62.7933L108.324 60.6824C106.488 61.8755 104.255 62.5792 101.807 62.5792C95.199 62.5792 90.3041 57.6537 90.3041 51.5044V51.4432C90.3041 45.294 95.2602 40.3073 101.868 40.3073C108.477 40.3073 113.371 45.2328 113.371 51.382V51.4432C113.371 53.7071 112.698 55.8487 111.475 57.5925L113.677 59.4587L110.679 62.7933ZM101.868 57.3171C102.664 57.3171 103.398 57.1642 104.04 56.9194L101.073 54.3802L104.071 51.0149L106.977 53.6459C107.222 53.0035 107.345 52.2998 107.345 51.5656V51.5044C107.345 48.3839 105.111 45.6611 101.807 45.6611C98.5643 45.6611 96.3922 48.3533 96.3922 51.4432V51.5044C96.3922 54.5943 98.5949 57.3171 101.868 57.3171ZM127.936 62.5486C121.847 62.5486 118.023 59.4587 118.023 52.7587V40.7356H124.05V52.6364C124.05 55.7263 125.61 57.1948 127.997 57.1948C130.383 57.1948 131.943 55.7875 131.943 52.7893V40.7356H137.97V52.6058C137.97 59.5199 134.024 62.5486 127.936 62.5486ZM143.318 62.1509V40.7356H160.542V45.7835H149.192V49.0264H159.471V53.7071H149.192V57.103H160.695V62.1509H143.318ZM173.972 62.518C170.179 62.518 166.569 61.3249 163.938 58.9692L167.242 55.0226C169.353 56.7053 171.709 57.5925 174.187 57.5925C175.777 57.5925 176.634 57.0418 176.634 56.124V56.0628C176.634 55.1756 175.93 54.6861 173.024 54.0131C168.466 52.9729 164.947 51.688 164.947 47.2825V47.2213C164.947 43.2442 168.099 40.3684 173.238 40.3684C176.879 40.3684 179.724 41.3474 182.049 43.2136L179.082 47.4049C177.124 46.0282 174.982 45.294 173.085 45.294C171.647 45.294 170.944 45.9058 170.944 46.6707V46.7319C170.944 47.7108 171.678 48.1391 174.646 48.8122C179.571 49.883 182.63 51.4738 182.63 55.4815V55.5427C182.63 59.9176 179.173 62.518 173.972 62.518ZM191.986 62.1509V45.9364H185.562V40.7356H204.346V45.9364H197.921V62.1509H191.986Z" fill="white"/>
</g>
<defs>
<filter id="filter0_dd_1_529" x="-1.94645" y="0.0535475" width="103.341" height="88.5636" filterUnits="userSpaceOnUse" color-interpolation-filters="sRGB">
<feFlood flood-opacity="0" result="BackgroundImageFix"/>
<feColorMatrix in="SourceAlpha" type="matrix" values="0 0 0 0 0 0 0 0 0 0 0 0 0 0 0 0 0 0 127 0" result="hardAlpha"/>
<feOffset dx="1.94645" dy="1.94645"/>
<feGaussianBlur stdDeviation="1.94645"/>
<feComposite in2="hardAlpha" operator="out"/>
<feColorMatrix type="matrix" values="0 0 0 0 0.85098 0 0 0 0 0.85098 0 0 0 0 0.85098 0 0 0 0.4 0"/>
<feBlend mode="normal" in2="BackgroundImageFix" result="effect1_dropShadow_1_529"/>
<feColorMatrix in="SourceAlpha" type="matrix" values="0 0 0 0 0 0 0 0 0 0 0 0 0 0 0 0 0 0 127 0" result="hardAlpha"/>
<feOffset dx="0.206037" dy="0.618111"/>
<feGaussianBlur stdDeviation="1.03018"/>
<feComposite in2="hardAlpha" operator="out"/>
<feColorMatrix type="matrix" values="0 0 0 0 0.87451 0 0 0 0 0.223529 0 0 0 0 0.988235 0 0 0 0.92 0"/>
<feBlend mode="normal" in2="effect1_dropShadow_1_529" result="effect2_dropShadow_1_529"/>
<feBlend mode="normal" in="SourceGraphic" in2="effect2_dropShadow_1_529" result="shape"/>
</filter>
<filter id="filter1_d_1_529" x="25.8855" y="9.93884" width="36.5455" height="40.7215" filterUnits="userSpaceOnUse" color-interpolation-filters="sRGB">
<feFlood flood-opacity="0" result="BackgroundImageFix"/>
<feColorMatrix in="SourceAlpha" type="matrix" values="0 0 0 0 0 0 0 0 0 0 0 0 0 0 0 0 0 0 127 0" result="hardAlpha"/>
<feOffset dy="0.747184"/>
<feGaussianBlur stdDeviation="0.373592"/>
<feComposite in2="hardAlpha" operator="out"/>
<feColorMatrix type="matrix" values="0 0 0 0 0 0 0 0 0 0 0 0 0 0 0 0 0 0 0.25 0"/>
<feBlend mode="normal" in2="BackgroundImageFix" result="effect1_dropShadow_1_529"/>
<feBlend mode="normal" in="SourceGraphic" in2="effect1_dropShadow_1_529" result="shape"/>
</filter>
<filter id="filter2_dd_1_529" x="87.3786" y="1.3608" width="122.807" height="67.2719" filterUnits="userSpaceOnUse" color-interpolation-filters="sRGB">
<feFlood flood-opacity="0" result="BackgroundImageFix"/>
<feColorMatrix in="SourceAlpha" type="matrix" values="0 0 0 0 0 0 0 0 0 0 0 0 0 0 0 0 0 0 127 0" result="hardAlpha"/>
<feOffset dx="1.94645" dy="1.94645"/>
<feGaussianBlur stdDeviation="1.94645"/>
<feComposite in2="hardAlpha" operator="out"/>
<feColorMatrix type="matrix" values="0 0 0 0 0.85098 0 0 0 0 0.85098 0 0 0 0 0.85098 0 0 0 0.4 0"/>
<feBlend mode="normal" in2="BackgroundImageFix" result="effect1_dropShadow_1_529"/>
<feColorMatrix in="SourceAlpha" type="matrix" values="0 0 0 0 0 0 0 0 0 0 0 0 0 0 0 0 0 0 127 0" result="hardAlpha"/>
<feOffset dx="0.206037" dy="0.618111"/>
<feGaussianBlur stdDeviation="1.03018"/>
<feComposite in2="hardAlpha" operator="out"/>
<feColorMatrix type="matrix" values="0 0 0 0 0.87451 0 0 0 0 0.223529 0 0 0 0 0.988235 0 0 0 0.92 0"/>
<feBlend mode="normal" in2="effect1_dropShadow_1_529" result="effect2_dropShadow_1_529"/>
<feBlend mode="normal" in="SourceGraphic" in2="effect2_dropShadow_1_529" result="shape"/>
</filter>
</defs>
</svg>
